<?xml version="1.0" encoding="UTF-8"?>
<!DOCTYPE svg PUBLIC "-//W3C//DTD SVG 1.1//EN" "http://www.w3.org/Graphics/SVG/1.1/DTD/svg11.dtd">
<!-- Creator: CorelDRAW X6 -->
<svg xmlns="http://www.w3.org/2000/svg" xml:space="preserve" width="9.93055in" height="6.62499in" version="1.1" style="shape-rendering:geometricPrecision; text-rendering:geometricPrecision; image-rendering:optimizeQuality; fill-rule:evenodd; clip-rule:evenodd"
viewBox="0 0 9931 6625"
 xmlns:xlink="http://www.w3.org/1999/xlink">
 <defs>
  <style type="text/css">
   <![CDATA[
    .fil2 {fill:#395A86}
    .fil5 {fill:#424948}
    .fil1 {fill:#68BD53}
    .fil3 {fill:#E6CE4B}
    .fil4 {fill:#FEFEFE}
    .fil0 {fill:#EF1B92}
   ]]>
  </style>
 </defs>
 <g id="CutLayer">
  <metadata id="CorelCorpID_0Corel-Layer"/>
  <path class="fil0" d="M3735 4031c-16,3 -22,-34 -606,-372 -553,-319 -1204,-325 -1828,-304 -225,8 -620,22 -838,29l0 -3070 8998 0 6 2620c-86,6 -377,34 -487,53 -649,115 -1292,350 -1754,835 -57,60 -109,129 -152,210 -347,4 -2252,-236 -3338,0z"/>
  <path class="fil0" d="M5069 1938c-2,3 -5,6 -8,9 -33,35 -75,53 -125,53 -66,0 -115,-29 -147,-86l-125 -226 -556 0 -125 226c-3,5 -6,10 -10,15 -34,47 -79,70 -137,70 -23,0 -44,-4 -63,-11 -13,3 -27,4 -41,4l-708 0c-39,0 -73,-9 -102,-27 -9,-5 -17,-11 -24,-18 -35,-33 -53,-74 -53,-126l0 -978c0,-47 17,-86 51,-117 32,-30 71,-44 117,-44 48,0 88,16 121,49 31,31 47,69 47,113l0 828 552 0c2,0 4,0 6,0l18 -33c-31,-31 -46,-68 -46,-112 0,-51 20,-92 61,-124 31,-24 67,-36 108,-36l28 0 326 -586c3,-6 5,-11 8,-16 8,-15 18,-28 31,-39 32,-29 70,-44 115,-44 47,0 86,15 118,44 10,9 19,19 26,31l1 1c4,5 7,10 10,16l491 895 0 -823c0,-47 17,-86 51,-117 32,-30 71,-44 117,-44 48,0 88,16 121,49 31,31 47,69 47,113l0 269 570 -399c2,-2 6,-4 10,-6l1 -1c27,-17 57,-26 90,-26 35,0 66,9 93,26 27,-15 59,-22 93,-22l708 0c46,0 85,15 117,44 34,31 51,71 51,117 0,51 -20,92 -61,124 -31,24 -67,36 -108,36l-552 0 0 360 572 0c46,0 85,15 117,44 34,31 51,71 51,117 0,51 -20,92 -61,124 -19,15 -40,25 -63,31 15,6 29,14 42,24 41,32 61,73 61,124 0,47 -17,86 -51,117 -32,30 -71,44 -117,44l-708 0c-32,0 -61,-6 -87,-18 -26,16 -55,23 -88,23 -27,0 -54,-6 -79,-18l-603 -292 0 150c0,47 -17,86 -51,117 -32,30 -71,44 -117,44 -48,0 -88,-16 -121,-49 -4,-4 -7,-8 -11,-12z"/>
  <polygon class="fil0" points="4488,1368 4388,1185 4287,1368 "/>
  <polygon class="fil0" points="5781,2696 5681,2513 5580,2696 "/>
  <path class="fil0" d="M5937 1603l-413 -201 521 -364 0 334c-24,6 -46,16 -66,31 -41,32 -61,73 -61,124 0,28 6,54 19,76z"/>
  <path class="fil0" d="M3166 2112c8,-22 22,-41 40,-58 32,-30 71,-44 117,-44 48,0 88,16 121,49 31,31 47,69 47,113l0 828 552 0c36,0 67,9 95,27l0 -855c0,-47 17,-86 51,-117 32,-30 71,-44 117,-44 48,0 88,16 121,49 31,31 47,69 47,113l0 828 552 0c2,0 5,0 7,0l18 -32c-31,-31 -46,-68 -46,-112 0,-51 20,-92 61,-124 31,-24 67,-36 108,-36l28 0 326 -586c3,-6 5,-11 8,-16 8,-15 18,-28 31,-39 32,-29 70,-44 115,-44 47,0 86,15 118,44 10,9 19,19 26,31l1 1c4,5 7,10 10,16l340 619c-2,-19 -3,-37 -3,-56 0,-89 19,-174 56,-256 37,-81 89,-153 157,-215 69,-63 145,-111 229,-142 84,-31 174,-47 270,-47 88,0 170,13 245,39 78,27 143,63 195,109 6,5 12,11 18,18 21,22 35,46 42,72l0 -64c0,-62 28,-109 84,-140 28,-15 60,-23 95,-23l708 0c46,0 85,15 117,44 34,31 51,71 51,117 0,51 -20,92 -61,124 -31,24 -67,36 -108,36l-552 0 0 360 572 0c46,0 85,15 117,44 34,31 51,71 51,117 0,51 -20,92 -61,124 -19,15 -40,25 -63,31 15,6 29,14 42,24 41,32 61,73 61,124 0,47 -17,86 -51,117 -32,30 -71,44 -117,44l-708 0c-39,0 -73,-9 -102,-27 -9,-5 -17,-11 -24,-18 -35,-33 -53,-74 -53,-126l0 -23c-59,57 -126,103 -202,137 -91,41 -190,61 -297,61 -92,0 -181,-17 -268,-50 -81,-31 -154,-75 -219,-132 1,8 2,15 2,23 0,43 -14,80 -43,110 -33,35 -75,53 -125,53 -66,0 -115,-29 -147,-86l-125 -226 -556 0 -125 226c-3,5 -6,10 -10,15 -34,47 -79,70 -137,70 -23,0 -44,-4 -64,-11 -13,3 -27,4 -41,4l-708 0c-39,0 -73,-9 -102,-27 -9,-5 -17,-11 -24,-18 -5,-5 -11,-10 -15,-16 -5,6 -10,11 -16,17 -32,30 -71,44 -117,44l-708 0c-39,0 -73,-9 -102,-27 -9,-5 -17,-11 -24,-18 -18,-17 -32,-36 -41,-58 -8,23 -22,44 -42,62 -32,30 -71,44 -117,44 -50,0 -92,-18 -124,-53 -28,-30 -42,-66 -42,-108l0 -849 -510 918c-2,4 -5,10 -9,16 -8,13 -17,25 -28,35 -32,29 -70,44 -114,44 -47,0 -86,-15 -118,-44 -10,-9 -19,-19 -26,-31l-1 -1c-4,-5 -7,-10 -10,-16l-540 -984c-15,-24 -23,-51 -23,-80 0,-43 14,-80 43,-110 33,-35 75,-53 125,-53 66,0 115,29 147,87l400 730 405 -730c3,-5 6,-10 10,-15 34,-47 79,-70 137,-70 44,0 81,13 113,40 11,9 20,19 27,29 6,-9 14,-17 23,-25 32,-30 71,-44 117,-44 50,0 92,18 124,53 14,15 24,31 31,49z"/>
  <path class="fil0" d="M6507 2665c0,-23 3,-47 9,-74 6,-23 14,-46 26,-69 13,-25 28,-48 44,-68 14,-18 33,-35 57,-53 33,-25 69,-44 110,-57 40,-13 83,-20 130,-20 27,0 52,2 76,6 22,4 41,9 56,15 16,6 32,14 47,23 26,16 45,28 56,36 0,0 0,0 0,0l2 1c0,0 0,0 0,0l6 4c30,20 62,30 96,30 51,0 93,-18 125,-55 17,-19 28,-40 35,-63l0 370c-3,0 -6,0 -9,0l-640 0c-41,0 -77,12 -108,36 -38,30 -58,68 -61,115 -12,-17 -22,-35 -31,-54 -19,-40 -28,-81 -28,-124z"/>
  <path class="fil0" d="M3778 1918c-14,6 -29,9 -46,9l-708 0c-27,0 -50,-6 -68,-17 -5,-3 -10,-7 -14,-11 -21,-20 -32,-46 -32,-78l0 -978c0,-28 10,-51 30,-69 20,-18 44,-27 73,-27 30,0 55,10 75,30 18,18 27,41 27,67l0 893 617 0c15,0 28,2 40,7l70 -126c-14,-4 -26,-12 -37,-22 -20,-18 -30,-42 -30,-69 0,-30 12,-54 36,-72 19,-15 42,-22 68,-22l66 0 346 -623c2,-5 4,-10 6,-14 5,-8 10,-16 17,-22 19,-18 43,-27 71,-27 30,0 54,9 74,27 6,6 11,12 16,19l2 3c2,3 4,6 6,9l544 991c1,2 2,4 3,6 6,11 8,24 8,37 0,26 -9,47 -26,65 -20,21 -46,32 -78,32 -40,0 -70,-18 -90,-53l-144 -259 -632 0 -144 259c-2,3 -3,6 -6,9 -21,29 -49,43 -84,43 -22,0 -41,-5 -58,-16z"/>
  <path class="fil0" d="M7441 2952c-17,29 -40,59 -68,92 -61,70 -134,124 -219,162 -82,37 -173,55 -271,55 -84,0 -165,-15 -245,-45 -78,-30 -148,-73 -210,-130 -61,-56 -109,-121 -142,-194 -33,-73 -50,-149 -50,-226 0,-79 17,-156 50,-229 33,-73 80,-138 142,-194 63,-58 132,-101 208,-129 76,-29 159,-43 247,-43 81,0 155,12 223,36 70,25 128,57 175,96 4,3 8,7 11,11l1 1c20,21 30,43 30,68 0,23 -8,44 -23,61 -20,22 -45,33 -77,33 -21,0 -41,-7 -60,-20l-6 -4c0,0 0,0 0,0l0 0c0,0 0,0 0,0 -12,-9 -32,-21 -60,-38 -18,-11 -37,-21 -57,-29 -19,-7 -42,-14 -68,-18 -27,-5 -56,-7 -87,-7 -54,0 -104,8 -151,23 -47,16 -90,38 -129,67 -28,21 -50,42 -68,64 -19,23 -36,50 -51,79 -14,27 -25,55 -32,84 -7,31 -11,61 -11,89 0,52 11,103 34,152 24,51 56,95 97,133 41,38 90,68 145,89 53,21 109,31 165,31 86,0 164,-21 233,-62 29,-17 55,-38 78,-61l-460 0c-28,0 -51,-8 -71,-25 -22,-19 -33,-42 -33,-71 0,-30 12,-54 36,-72 19,-15 42,-22 68,-22l640 0c12,0 23,2 34,5 6,-1 11,-1 17,-1l23 0 0 -583c0,-36 17,-64 51,-83 18,-10 40,-15 64,-15l708 0c29,0 54,9 73,27 20,18 30,42 30,69 0,30 -12,54 -36,72 -19,15 -42,22 -68,22l-617 0 0 490 637 0c29,0 54,9 73,27 20,18 30,42 30,69 0,30 -12,54 -36,72 -19,15 -42,22 -68,22l-637 0 0 113 617 0c26,0 49,7 68,22 24,19 36,43 36,72 0,28 -10,51 -30,69 -20,18 -44,27 -73,27l-708 0c-27,0 -50,-6 -68,-17 -5,-3 -10,-7 -14,-11 -21,-20 -32,-46 -32,-78l0 -199 -7 0z"/>
  <path class="fil0" d="M5071 3246c-14,6 -29,9 -46,9l-708 0c-27,0 -50,-6 -68,-17 -5,-3 -10,-7 -14,-11 -21,-20 -32,-46 -32,-78l0 -978c0,-28 10,-51 30,-69 20,-18 44,-27 73,-27 30,0 55,10 75,30 18,18 27,41 27,67l0 893 617 0c15,0 29,2 42,7l70 -126c-14,-4 -26,-12 -37,-22 -20,-18 -30,-42 -30,-69 0,-30 12,-54 36,-72 19,-15 42,-22 68,-22l66 0 346 -623c2,-5 4,-10 6,-14 4,-8 10,-16 17,-22 19,-18 43,-27 71,-27 30,0 54,9 74,27 6,6 11,12 16,19l2 3c2,3 4,6 6,9l544 991c1,2 2,4 3,6 6,11 8,24 8,37 0,26 -9,47 -26,65 -20,21 -46,32 -78,32 -40,0 -70,-18 -90,-53l-144 -259 -632 0 -144 259c-2,3 -3,6 -6,9 -21,29 -49,43 -84,43 -22,0 -42,-5 -59,-16z"/>
  <path class="fil0" d="M4042 3065c26,0 49,7 68,22 24,19 36,43 36,72 0,28 -10,51 -30,69 -20,18 -44,27 -73,27l-708 0c-27,0 -50,-6 -68,-17 -5,-3 -10,-7 -14,-11 -21,-20 -32,-46 -32,-78l0 -978c0,-28 10,-51 30,-69 20,-18 44,-27 73,-27 30,0 55,10 75,30 18,18 27,41 27,67l0 893 617 0z"/>
  <path class="fil0" d="M2907 2173c0,-28 10,-51 30,-69 20,-18 44,-27 73,-27 31,0 57,11 76,32 16,18 25,39 25,64l0 992c0,28 -10,51 -30,69 -20,18 -44,27 -73,27 -31,0 -57,-11 -76,-32 -16,-18 -25,-39 -25,-64l0 -992z"/>
  <path class="fil0" d="M2274 3202c-2,4 -4,9 -7,13l0 0c-4,8 -10,14 -16,21 -19,18 -43,27 -70,27 -30,0 -54,-9 -74,-27 -6,-6 -11,-12 -16,-19l-2 -3c-2,-3 -4,-6 -6,-9l-541 -986c-9,-14 -14,-30 -14,-47 0,-25 9,-47 26,-65 20,-21 46,-32 78,-32 40,0 70,18 90,53l457 833 462 -833c2,-3 3,-6 5,-9 21,-29 49,-43 84,-43 28,0 51,8 71,25 22,19 33,42 33,71 0,9 -1,18 -4,26 -2,6 -4,12 -7,18l-548 987z"/>
  <polygon class="fil0" points="4598,1433 4388,1049 4176,1433 "/>
  <path class="fil0" d="M6111 1761c-2,-2 -4,-3 -7,-4 -3,-2 -5,-3 -8,-4l-700 -340 702 -491c4,-3 8,-6 12,-9l0 520 -23 0c-26,0 -49,7 -68,22 -24,19 -36,43 -36,72 0,28 10,51 30,69 20,18 44,27 73,27l23 0 0 138z"/>
  <path class="fil0" d="M6134 1891c-3,4 -6,8 -10,12 -20,20 -44,30 -74,30 -17,0 -34,-4 -51,-12l-696 -338 0 254c0,28 -10,51 -30,69 -20,18 -44,27 -73,27 -30,0 -55,-10 -75,-30 -18,-18 -27,-41 -27,-67l0 -992c0,-28 10,-51 30,-69 20,-18 44,-27 73,-27 30,0 55,10 75,30 18,18 27,41 27,67l0 394 673 -470c3,-2 6,-4 8,-5 16,-11 35,-16 55,-16 33,0 59,12 79,35 4,4 7,8 9,13 8,-11 19,-20 33,-28 18,-10 40,-15 64,-15l708 0c29,0 54,9 73,27 20,18 30,42 30,69 0,30 -12,54 -36,72 -19,15 -42,22 -68,22l-617 0 0 490 638 0c29,0 54,9 73,27 20,18 30,42 30,69 0,30 -12,54 -36,72 -19,15 -42,22 -68,22l-638 0 0 113 617 0c26,0 49,7 68,22 24,19 36,43 36,72 0,28 -10,51 -30,69 -20,18 -44,27 -73,27l-708 0c-27,0 -50,-6 -68,-17 -5,-3 -10,-7 -14,-11 -3,-3 -6,-6 -8,-9z"/>
  <polygon class="fil0" points="5892,2761 5682,2377 5470,2761 "/>
 </g>
 <g id="__x0023_Layer_x0020_1">
  <metadata id="CorelCorpID_1Corel-Layer"/>
  <path class="fil1" d="M2172 6308c-173,-118 -363,-409 -465,-559 -112,-174 -143,-361 -102,-541 41,-174 143,-336 306,-479 153,-137 343,-241 557,-341 204,-93 442,-182 676,-238 85,-19 170,-34 255,-49 -527,-353 -1066,-426 -1661,-474 -163,-12 -336,-19 -499,-19 -153,0 -316,12 -469,19 -28,2 -248,1 -307,6l0 2675 1709 0z"/>
  <path class="fil1" d="M9467 6308l0 -3132c-139,27 -451,69 -580,100 -611,149 -1236,373 -1628,887 -299,392 -338,959 27,1318 74,73 175,176 260,242 406,313 1274,568 1921,585z"/>
  <path class="fil2" d="M2661 6308l4912 0c1,0 -542,-532 -693,-774 -170,-274 -224,-422 -197,-780 8,-107 37,-346 226,-562 13,-14 -1657,-106 -2507,-26 -570,54 -1165,145 -1653,380 -464,223 -889,644 -707,1036 94,201 413,575 619,726z"/>
  <path class="fil3" d="M3735 4031c-16,3 -22,-34 -606,-372 -553,-319 -1204,-325 -1828,-304 -225,8 -620,22 -838,29l0 -3070 8998 0 6 2620c-86,6 -377,34 -487,53 -649,115 -1292,350 -1754,835 -57,60 -109,129 -152,210 -347,4 -2252,-236 -3338,0z"/>
  <path class="fil4" d="M5069 1938c-2,3 -5,6 -8,9 -33,35 -75,53 -125,53 -66,0 -115,-29 -147,-86l-125 -226 -556 0 -125 226c-3,5 -6,10 -10,15 -34,47 -79,70 -137,70 -23,0 -44,-4 -63,-11 -13,3 -27,4 -41,4l-708 0c-39,0 -73,-9 -102,-27 -9,-5 -17,-11 -24,-18 -35,-33 -53,-74 -53,-126l0 -978c0,-47 17,-86 51,-117 32,-30 71,-44 117,-44 48,0 88,16 121,49 31,31 47,69 47,113l0 828 552 0c2,0 4,0 6,0l18 -33c-31,-31 -46,-68 -46,-112 0,-51 20,-92 61,-124 31,-24 67,-36 108,-36l28 0 326 -586c3,-6 5,-11 8,-16 8,-15 18,-28 31,-39 32,-29 70,-44 115,-44 47,0 86,15 118,44 10,9 19,19 26,31l1 1c4,5 7,10 10,16l491 895 0 -823c0,-47 17,-86 51,-117 32,-30 71,-44 117,-44 48,0 88,16 121,49 31,31 47,69 47,113l0 269 570 -399c2,-2 6,-4 10,-6l1 -1c27,-17 57,-26 90,-26 35,0 66,9 93,26 27,-15 59,-22 93,-22l708 0c46,0 85,15 117,44 34,31 51,71 51,117 0,51 -20,92 -61,124 -31,24 -67,36 -108,36l-552 0 0 360 572 0c46,0 85,15 117,44 34,31 51,71 51,117 0,51 -20,92 -61,124 -19,15 -40,25 -63,31 15,6 29,14 42,24 41,32 61,73 61,124 0,47 -17,86 -51,117 -32,30 -71,44 -117,44l-708 0c-32,0 -61,-6 -87,-18 -26,16 -55,23 -88,23 -27,0 -54,-6 -79,-18l-603 -292 0 150c0,47 -17,86 -51,117 -32,30 -71,44 -117,44 -48,0 -88,-16 -121,-49 -4,-4 -7,-8 -11,-12zm-581 -571l0 0 -100 -183 -101 183 202 0zm1293 1328l0 0 -100 -183 -101 183 202 0zm156 -1093l0 0 -413 -201 521 -364 0 334c-24,6 -46,16 -66,31 -41,32 -61,73 -61,124 0,28 6,54 19,76zm-2771 510l0 0c8,-22 22,-41 40,-58 32,-30 71,-44 117,-44 48,0 88,16 121,49 31,31 47,69 47,113l0 828 552 0c36,0 67,9 95,27l0 -855c0,-47 17,-86 51,-117 32,-30 71,-44 117,-44 48,0 88,16 121,49 31,31 47,69 47,113l0 828 552 0c2,0 5,0 7,0l18 -32c-31,-31 -46,-68 -46,-112 0,-51 20,-92 61,-124 31,-24 67,-36 108,-36l28 0 326 -586c3,-6 5,-11 8,-16 8,-15 18,-28 31,-39 32,-29 70,-44 115,-44 47,0 86,15 118,44 10,9 19,19 26,31l1 1c4,5 7,10 10,16l340 619c-2,-19 -3,-37 -3,-56 0,-89 19,-174 56,-256 37,-81 89,-153 157,-215 69,-63 145,-111 229,-142 84,-31 174,-47 270,-47 88,0 170,13 245,39 78,27 143,63 195,109 6,5 12,11 18,18 21,22 35,46 42,72l0 -64c0,-62 28,-109 84,-140 28,-15 60,-23 95,-23l708 0c46,0 85,15 117,44 34,31 51,71 51,117 0,51 -20,92 -61,124 -31,24 -67,36 -108,36l-552 0 0 360 572 0c46,0 85,15 117,44 34,31 51,71 51,117 0,51 -20,92 -61,124 -19,15 -40,25 -63,31 15,6 29,14 42,24 41,32 61,73 61,124 0,47 -17,86 -51,117 -32,30 -71,44 -117,44l-708 0c-39,0 -73,-9 -102,-27 -9,-5 -17,-11 -24,-18 -35,-33 -53,-74 -53,-126l0 -23c-59,57 -126,103 -202,137 -91,41 -190,61 -297,61 -92,0 -181,-17 -268,-50 -81,-31 -154,-75 -219,-132 1,8 2,15 2,23 0,43 -14,80 -43,110 -33,35 -75,53 -125,53 -66,0 -115,-29 -147,-86l-125 -226 -556 0 -125 226c-3,5 -6,10 -10,15 -34,47 -79,70 -137,70 -23,0 -44,-4 -64,-11 -13,3 -27,4 -41,4l-708 0c-39,0 -73,-9 -102,-27 -9,-5 -17,-11 -24,-18 -5,-5 -11,-10 -15,-16 -5,6 -10,11 -16,17 -32,30 -71,44 -117,44l-708 0c-39,0 -73,-9 -102,-27 -9,-5 -17,-11 -24,-18 -18,-17 -32,-36 -41,-58 -8,23 -22,44 -42,62 -32,30 -71,44 -117,44 -50,0 -92,-18 -124,-53 -28,-30 -42,-66 -42,-108l0 -849 -510 918c-2,4 -5,10 -9,16 -8,13 -17,25 -28,35 -32,29 -70,44 -114,44 -47,0 -86,-15 -118,-44 -10,-9 -19,-19 -26,-31l-1 -1c-4,-5 -7,-10 -10,-16l-540 -984c-15,-24 -23,-51 -23,-80 0,-43 14,-80 43,-110 33,-35 75,-53 125,-53 66,0 115,29 147,87l400 730 405 -730c3,-5 6,-10 10,-15 34,-47 79,-70 137,-70 44,0 81,13 113,40 11,9 20,19 27,29 6,-9 14,-17 23,-25 32,-30 71,-44 117,-44 50,0 92,18 124,53 14,15 24,31 31,49zm3340 553l0 0c0,-23 3,-47 9,-74 6,-23 14,-46 26,-69 13,-25 28,-48 44,-68 14,-18 33,-35 57,-53 33,-25 69,-44 110,-57 40,-13 83,-20 130,-20 27,0 52,2 76,6 22,4 41,9 56,15 16,6 32,14 47,23 26,16 45,28 56,36 0,0 0,0 0,0l2 1c0,0 0,0 0,0l6 4c30,20 62,30 96,30 51,0 93,-18 125,-55 17,-19 28,-40 35,-63l0 370c-3,0 -6,0 -9,0l-640 0c-41,0 -77,12 -108,36 -38,30 -58,68 -61,115 -12,-17 -22,-35 -31,-54 -19,-40 -28,-81 -28,-124z"/>
  <path class="fil5" d="M3778 1918c-14,6 -29,9 -46,9l-708 0c-27,0 -50,-6 -68,-17 -5,-3 -10,-7 -14,-11 -21,-20 -32,-46 -32,-78l0 -978c0,-28 10,-51 30,-69 20,-18 44,-27 73,-27 30,0 55,10 75,30 18,18 27,41 27,67l0 893 617 0c15,0 28,2 40,7l70 -126c-14,-4 -26,-12 -37,-22 -20,-18 -30,-42 -30,-69 0,-30 12,-54 36,-72 19,-15 42,-22 68,-22l66 0 346 -623c2,-5 4,-10 6,-14 5,-8 10,-16 17,-22 19,-18 43,-27 71,-27 30,0 54,9 74,27 6,6 11,12 16,19l2 3c2,3 4,6 6,9l544 991c1,2 2,4 3,6 6,11 8,24 8,37 0,26 -9,47 -26,65 -20,21 -46,32 -78,32 -40,0 -70,-18 -90,-53l-144 -259 -632 0 -144 259c-2,3 -3,6 -6,9 -21,29 -49,43 -84,43 -22,0 -41,-5 -58,-16zm3663 1034l0 0c-17,29 -40,59 -68,92 -61,70 -134,124 -219,162 -82,37 -173,55 -271,55 -84,0 -165,-15 -245,-45 -78,-30 -148,-73 -210,-130 -61,-56 -109,-121 -142,-194 -33,-73 -50,-149 -50,-226 0,-79 17,-156 50,-229 33,-73 80,-138 142,-194 63,-58 132,-101 208,-129 76,-29 159,-43 247,-43 81,0 155,12 223,36 70,25 128,57 175,96 4,3 8,7 11,11l1 1c20,21 30,43 30,68 0,23 -8,44 -23,61 -20,22 -45,33 -77,33 -21,0 -41,-7 -60,-20l-6 -4c0,0 0,0 0,0l0 0c0,0 0,0 0,0 -12,-9 -32,-21 -60,-38 -18,-11 -37,-21 -57,-29 -19,-7 -42,-14 -68,-18 -27,-5 -56,-7 -87,-7 -54,0 -104,8 -151,23 -47,16 -90,38 -129,67 -28,21 -50,42 -68,64 -19,23 -36,50 -51,79 -14,27 -25,55 -32,84 -7,31 -11,61 -11,89 0,52 11,103 34,152 24,51 56,95 97,133 41,38 90,68 145,89 53,21 109,31 165,31 86,0 164,-21 233,-62 29,-17 55,-38 78,-61l-460 0c-28,0 -51,-8 -71,-25 -22,-19 -33,-42 -33,-71 0,-30 12,-54 36,-72 19,-15 42,-22 68,-22l640 0c12,0 23,2 34,5 6,-1 11,-1 17,-1l23 0 0 -583c0,-36 17,-64 51,-83 18,-10 40,-15 64,-15l708 0c29,0 54,9 73,27 20,18 30,42 30,69 0,30 -12,54 -36,72 -19,15 -42,22 -68,22l-617 0 0 490 637 0c29,0 54,9 73,27 20,18 30,42 30,69 0,30 -12,54 -36,72 -19,15 -42,22 -68,22l-637 0 0 113 617 0c26,0 49,7 68,22 24,19 36,43 36,72 0,28 -10,51 -30,69 -20,18 -44,27 -73,27l-708 0c-27,0 -50,-6 -68,-17 -5,-3 -10,-7 -14,-11 -21,-20 -32,-46 -32,-78l0 -199 -7 0zm-2370 294l0 0c-14,6 -29,9 -46,9l-708 0c-27,0 -50,-6 -68,-17 -5,-3 -10,-7 -14,-11 -21,-20 -32,-46 -32,-78l0 -978c0,-28 10,-51 30,-69 20,-18 44,-27 73,-27 30,0 55,10 75,30 18,18 27,41 27,67l0 893 617 0c15,0 29,2 42,7l70 -126c-14,-4 -26,-12 -37,-22 -20,-18 -30,-42 -30,-69 0,-30 12,-54 36,-72 19,-15 42,-22 68,-22l66 0 346 -623c2,-5 4,-10 6,-14 4,-8 10,-16 17,-22 19,-18 43,-27 71,-27 30,0 54,9 74,27 6,6 11,12 16,19l2 3c2,3 4,6 6,9l544 991c1,2 2,4 3,6 6,11 8,24 8,37 0,26 -9,47 -26,65 -20,21 -46,32 -78,32 -40,0 -70,-18 -90,-53l-144 -259 -632 0 -144 259c-2,3 -3,6 -6,9 -21,29 -49,43 -84,43 -22,0 -42,-5 -59,-16zm-1029 -181l0 0c26,0 49,7 68,22 24,19 36,43 36,72 0,28 -10,51 -30,69 -20,18 -44,27 -73,27l-708 0c-27,0 -50,-6 -68,-17 -5,-3 -10,-7 -14,-11 -21,-20 -32,-46 -32,-78l0 -978c0,-28 10,-51 30,-69 20,-18 44,-27 73,-27 30,0 55,10 75,30 18,18 27,41 27,67l0 893 617 0zm-1136 -892l0 0c0,-28 10,-51 30,-69 20,-18 44,-27 73,-27 31,0 57,11 76,32 16,18 25,39 25,64l0 992c0,28 -10,51 -30,69 -20,18 -44,27 -73,27 -31,0 -57,-11 -76,-32 -16,-18 -25,-39 -25,-64l0 -992zm-633 1030l0 0c-2,4 -4,9 -7,13l0 0c-4,8 -10,14 -16,21 -19,18 -43,27 -70,27 -30,0 -54,-9 -74,-27 -6,-6 -11,-12 -16,-19l-2 -3c-2,-3 -4,-6 -6,-9l-541 -986c-9,-14 -14,-30 -14,-47 0,-25 9,-47 26,-65 20,-21 46,-32 78,-32 40,0 70,18 90,53l457 833 462 -833c2,-3 3,-6 5,-9 21,-29 49,-43 84,-43 28,0 51,8 71,25 22,19 33,42 33,71 0,9 -1,18 -4,26 -2,6 -4,12 -7,18l-548 987zm2324 -1770l0 0 -210 -383 -212 383 422 0zm1513 328l0 0c-2,-2 -4,-3 -7,-4 -3,-2 -5,-3 -8,-4l-700 -340 702 -491c4,-3 8,-6 12,-9l0 520 -23 0c-26,0 -49,7 -68,22 -24,19 -36,43 -36,72 0,28 10,51 30,69 20,18 44,27 73,27l23 0 0 138zm24 130l0 0c-3,4 -6,8 -10,12 -20,20 -44,30 -74,30 -17,0 -34,-4 -51,-12l-696 -338 0 254c0,28 -10,51 -30,69 -20,18 -44,27 -73,27 -30,0 -55,-10 -75,-30 -18,-18 -27,-41 -27,-67l0 -992c0,-28 10,-51 30,-69 20,-18 44,-27 73,-27 30,0 55,10 75,30 18,18 27,41 27,67l0 394 673 -470c3,-2 6,-4 8,-5 16,-11 35,-16 55,-16 33,0 59,12 79,35 4,4 7,8 9,13 8,-11 19,-20 33,-28 18,-10 40,-15 64,-15l708 0c29,0 54,9 73,27 20,18 30,42 30,69 0,30 -12,54 -36,72 -19,15 -42,22 -68,22l-617 0 0 490 638 0c29,0 54,9 73,27 20,18 30,42 30,69 0,30 -12,54 -36,72 -19,15 -42,22 -68,22l-638 0 0 113 617 0c26,0 49,7 68,22 24,19 36,43 36,72 0,28 -10,51 -30,69 -20,18 -44,27 -73,27l-708 0c-27,0 -50,-6 -68,-17 -5,-3 -10,-7 -14,-11 -3,-3 -6,-6 -8,-9zm-243 870l0 0 -210 -383 -212 383 422 0z"/>
 </g>
</svg>
